<svg xmlns="http://www.w3.org/2000/svg" width="1065" height="355" viewBox="0 0 1065 355">
  <defs>
    <style>
      .cls-1 {
        fill: none;
        stroke: #fff;
        stroke-linecap: round;
        stroke-width: 30px;
      }

      .cls-1, .cls-2 {
        fill-rule: evenodd;
      }

      .cls-2 {
        fill: #fff;
      }
    </style>
  </defs>
  <path class="cls-1" d="M225.685,225.7a100.008,100.008,0,1,1,0-141.438"/>
  <path class="cls-2" d="M154.971,139.979H374.98a15,15,0,0,1,15,15v0a15,15,0,0,1-15,15H154.971a15,15,0,0,1-15-15v0A15,15,0,0,1,154.971,139.979Z"/>
  <path id="Rectangle_1_copy" data-name="Rectangle 1 copy" class="cls-2" d="M789.992,139.979H1010a15,15,0,0,1,15,15v0a15,15,0,0,1-15,15H789.992a15,15,0,0,1-15-15v0A15,15,0,0,1,789.992,139.979Z"/>
  <path class="cls-2" d="M312.976,194.986h80a20,20,0,0,1,20,20V295a20,20,0,0,1-20,20h-80a20,20,0,0,1-20-20V214.986A20,20,0,0,1,312.976,194.986Z"/>
  <path id="Rectangle_2_copy" data-name="Rectangle 2 copy" class="cls-2" d="M467.981,194.986h80a20,20,0,0,1,20,20V295a20,20,0,0,1-20,20h-80a20,20,0,0,1-20-20V214.986A20,20,0,0,1,467.981,194.986Z"/>
  <path id="Rectangle_2_copy_2" data-name="Rectangle 2 copy 2" class="cls-2" d="M622.986,194.986h80a20,20,0,0,1,20,20V295a20,20,0,0,1-20,20h-80a20,20,0,0,1-20-20V214.986A20,20,0,0,1,622.986,194.986Z"/>
  <path id="Rectangle_2_copy_3" data-name="Rectangle 2 copy 3" class="cls-2" d="M777.991,194.986h80a20,20,0,0,1,20,20V295a20,20,0,0,1-20,20h-80a20,20,0,0,1-20-20V214.986A20,20,0,0,1,777.991,194.986Z"/>
  <path id="SL::DR" class="cls-2" d="M415.4,170.4h42.8c12.4,0,22.565-10,24.47-20.8,2.117-12-4.731-20.8-17.132-20.8h-22c-6.2,0-9.659-4.2-8.566-10.4A12.208,12.208,0,0,1,447.208,108h36.6l1.834-10.4h-37.8c-12.4,0-22.53,9.8-24.47,20.8-2.117,12,4.731,20.8,17.132,20.8h22c6.2,0,9.66,4.2,8.566,10.4A12.207,12.207,0,0,1,458.837,160h-41.6Zm73.8,0h43l1.835-10.4h-31.2l11.006-62.4h-11.8Zm63.381-28.8a8.608,8.608,0,0,0,8.117-6.9,5.64,5.64,0,0,0-5.683-6.9,8.608,8.608,0,0,0-8.117,6.9A5.64,5.64,0,0,0,552.581,141.6Zm-5.274,29.9a8.609,8.609,0,0,0,8.117-6.9,5.64,5.64,0,0,0-5.683-6.9,8.608,8.608,0,0,0-8.117,6.9A5.641,5.641,0,0,0,547.307,171.5Zm33.474-29.9a8.608,8.608,0,0,0,8.117-6.9,5.64,5.64,0,0,0-5.683-6.9,8.608,8.608,0,0,0-8.117,6.9A5.64,5.64,0,0,0,580.781,141.6Zm-5.274,29.9a8.609,8.609,0,0,0,8.117-6.9,5.64,5.64,0,0,0-5.683-6.9,8.608,8.608,0,0,0-8.117,6.9A5.641,5.641,0,0,0,575.507,171.5Zm21.093-1.1h32c20.2,0,39.86-16.2,43.423-36.4,3.775-21.4-9.38-36.4-30.581-36.4h-32ZM610.236,160l9.172-52h20.2c14.4,0,23.191,11.4,20.616,26s-15.387,26-29.788,26h-20.2ZM677.6,170.4h11.8l5.5-31.2h26.8l7.5,31.2h12.2L733.719,138a25.887,25.887,0,0,0,16.858-19.6c2.011-11.4-4.732-20.8-17.333-20.8h-42.8Zm19.139-41.6,3.669-20.8h29.8c6.2,0,9.66,4.2,8.566,10.4a12.208,12.208,0,0,1-12.235,10.4h-29.8Z"/>
</svg>
