<svg id="Advanced" xmlns="http://www.w3.org/2000/svg" width="90" height="90" viewBox="0 0 90 90">
  <defs>
    <style>
      .cls-1 {
        fill: #151515;
      }

      .cls-2 {
        fill: none;
        stroke: #ebcb8b;
        stroke-linecap: round;
        stroke-width: 5.4px;
      }

      .cls-3 {
        fill: #ebcb8b;
        fill-rule: evenodd;
      }
    </style>
  </defs>
  <circle id="Ellipse_1_copy_5" data-name="Ellipse 1 copy 5" class="cls-1" cx="45" cy="45" r="41.406"/>
  <circle id="Ellipse_1_copy_3" data-name="Ellipse 1 copy 3" class="cls-2" cx="45" cy="45" r="41.406"/>
  <path id="a" class="cls-3" d="M45,14.4A30.6,30.6,0,1,1,14.4,45,30.6,30.6,0,0,1,45,14.4ZM42.166,34.005c-7.383,1.978-10.621,8.042-8.762,14.98a11.505,11.505,0,0,0,14.021,8.208c3.647-.977,5.053-3.023,5.6-4.551l0.222-.06a2.7,2.7,0,1,0,5.132-1.661l-2.586-9.651C54.028,34.688,47.77,32.5,42.166,34.005Zm4.572,18.129c-3.736,1-7.072-.775-8.168-4.866-0.918-3.425.137-7.139,4.807-8.391,3.869-1.037,6.378.674,7.331,4.233L50.946,44C52.114,48.358,50.252,51.193,46.738,52.134Z"/>
</svg>
