<svg id="Easy" xmlns="http://www.w3.org/2000/svg" width="90" height="90" viewBox="0 0 90 90">
  <defs>
    <style>
      .cls-1 {
        fill: #151515;
      }

      .cls-2 {
        fill: none;
        stroke: #a3be8c;
        stroke-linecap: round;
        stroke-width: 5.4px;
      }

      .cls-3 {
        fill: #a3be8c;
        fill-rule: evenodd;
      }
    </style>
  </defs>
  <circle id="Ellipse_1_copy_5" data-name="Ellipse 1 copy 5" class="cls-1" cx="45" cy="45" r="41.406"/>
  <circle id="Ellipse_1_copy_4" data-name="Ellipse 1 copy 4" class="cls-2" cx="45" cy="45" r="41.406"/>
  <path id="e" class="cls-3" d="M45,14.4A30.6,30.6,0,1,1,14.4,45,30.6,30.6,0,0,1,45,14.4Zm9.685,26.9C53.1,35.389,47.56,32.679,41.733,34.24c-6.36,1.7-9.945,7.718-8.121,14.522,1.728,6.449,7.555,10.227,14.8,8.284a15.022,15.022,0,0,0,6.5-3.5c1.229-1.283,1.231-2.523.174-3.622-1.182-1.209-2.33-1.044-3.675-.016a11.753,11.753,0,0,1-4.393,2.464,6.126,6.126,0,0,1-7.276-2.96l12.409-3.325A3.63,3.63,0,0,0,54.685,41.3ZM38.531,45.061c-0.027-2.948,1.494-5.453,4.341-6.216,3.113-.834,6.025.96,6.689,3.261Z"/>
</svg>
