<svg id="Master" xmlns="http://www.w3.org/2000/svg" width="90" height="90" viewBox="0 0 90 90">
  <defs>
    <style>
      .cls-1 {
        fill: #151515;
      }

      .cls-2 {
        fill: none;
        stroke: #d08770;
        stroke-linecap: round;
        stroke-width: 5.4px;
      }

      .cls-3 {
        fill: #d08770;
        fill-rule: evenodd;
      }
    </style>
  </defs>
  <circle id="Ellipse_1_copy_5" data-name="Ellipse 1 copy 5" class="cls-1" cx="45" cy="45" r="41.406"/>
  <circle id="Ellipse_1_copy" data-name="Ellipse 1 copy" class="cls-2" cx="45" cy="45" r="41.406"/>
  <path id="m" class="cls-3" d="M45,14.4A30.6,30.6,0,1,1,14.4,45,30.6,30.6,0,0,1,45,14.4Zm4.819,17.423a9.644,9.644,0,0,0-6.069,4.391,7.156,7.156,0,0,0-10.8,2.94l-0.222.06-0.012-.044a2.545,2.545,0,0,0-3.143-1.589A2.686,2.686,0,0,0,27.7,41.086l4.481,16.723A2.72,2.72,0,1,0,37.432,56.4L34.31,44.75c-0.62-2.313,1.161-4.029,3.162-4.565,1.957-.524,3.7.105,4.366,2.6l3.111,11.608A2.72,2.72,0,1,0,50.2,52.982L47.015,41.107c-0.62-2.313,1.22-3.807,3.222-4.343,2.046-.548,3.7.105,4.366,2.6l3.11,11.608a2.72,2.72,0,1,0,5.248-1.406L59.744,37.553A7.755,7.755,0,0,0,49.819,31.823Z"/>
</svg>
